# xmcd
#
# Track frame offsets:
#  150
#  12506
#  23745
#  34261
#  47437
#  58073
#  69616
#  81987
#  93522
#  103944
#  115288
#  126430
#  140320
#  152414
#  164866
#  176849
#  187800
#  200039
#  210937
#  222921
#  233694
#  248090
#  258719
#  272555
#  287291
#  301598
#
# Disc length: 4205 seconds
#
# Revision: 1
# Processed by: cddbd v1.5.1PL2 Copyright (c) Steve Scherf et al.
# Submitted via: Collectorz.com_Music_Collector 6.11
#
DISCID=75106b1a
DTITLE=T-Bone Walker - Complete 1950-1954 Recordings [CD1)
DYEAR=2004
DGENRE=Blues
TTITLE0=Glamour Girl
TTITLE1=Strollin' with Bone
TTITLE2=The Sun went down
TTITLE3=You don't love me
TTITLE4=Travelin' Blues
TTITLE5=The hustle is on
TTITLE6=Baby broke my heart
TTITLE7=Evil hearted woman
TTITLE8=I walked away
TTITLE9=No reason
TTITLE10=Look me in the eye
TTITLE11=Too lazy
TTITLE12=Alimony blues
TTITLE13=Life is too short
TTITLE14=You don't understand
TTITLE15=Welcome blues
TTITLE16=I get so weary
TTITLE17=You just wanted to use me
TTITLE18=Tell me what's the reason
TTITLE19=I'm about to lose my mind
TTITLE20=Cold, cold feeling
TTITLE21=News for my baby
TTITLE22=Get these blues off me
TTITLE23=I got the blues again
TTITLE24=Through with women
TTITLE25=Street walking woman
EXTD=
EXTT0=
EXTT1=
EXTT2=
EXTT3=
EXTT4=
EXTT5=
EXTT6=
EXTT7=
EXTT8=
EXTT9=
EXTT10=
EXTT11=
EXTT12=
EXTT13=
EXTT14=
EXTT15=
EXTT16=
EXTT17=
EXTT18=
EXTT19=
EXTT20=
EXTT21=
EXTT22=
EXTT23=
EXTT24=
EXTT25=
PLAYORDER=
